<svg width="36" height="36" viewBox="0 0 36 36" fill="none" xmlns="http://www.w3.org/2000/svg">
<g clip-path="url(#clip0_18_1077)">
<rect width="36" height="36" rx="18" fill="white"/>
<path d="M10.294 30.1222L10.186 30.2888L10.1004 30.4103L9.94287 30.6309L9.62773 31.0406C9.41613 31.3017 9.20453 31.5493 8.98844 31.788C8.56075 32.2697 8.08803 32.7109 7.63783 33.1386C6.72229 33.9763 5.74731 34.7467 4.72052 35.4436C4.21179 35.7903 3.69405 36.1144 3.17182 36.4295C2.64958 36.7447 2.11384 37.0328 1.5736 37.3074C0.503363 37.8631 -0.596811 38.3591 -1.72188 38.7931L-1.85694 38.8471C-1.96547 38.8869 -2.07684 38.9185 -2.1901 38.9417C-2.82759 39.0535 -3.48089 39.0382 -4.11246 38.8967C-4.65647 38.7691 -5.17844 38.5613 -5.66116 38.2799C-6.43119 37.8193 -7.12397 37.2405 -7.71408 36.5646C-8.22594 35.9849 -8.69394 35.3679 -9.11421 34.7188C-9.51939 34.093 -9.88406 33.4672 -10.2172 32.8324C-10.5504 32.1976 -10.8565 31.5584 -11.1446 30.9191C-11.4328 30.2798 -11.6894 29.627 -11.9415 28.9787C-12.1936 28.3304 -12.4187 27.6731 -12.6348 27.0158C-12.7383 26.6872 -12.8419 26.354 -12.9409 26.0254C-13.04 25.6967 -13.13 25.3636 -13.2201 25.0079C-13.2933 24.704 -13.253 24.3839 -13.1069 24.1076C-12.9607 23.8313 -12.7188 23.6178 -12.4264 23.5073C-12.134 23.3968 -11.8114 23.3967 -11.519 23.5073C-11.2266 23.6178 -10.9846 23.8312 -10.8385 24.1075V24.1435L-10.3883 25.0034C-10.2352 25.2915 -10.0821 25.5797 -9.93808 25.8678C-9.62744 26.444 -9.3078 27.0158 -8.98365 27.5786C-8.65951 28.1413 -8.32186 28.6996 -7.9797 29.2443C-7.63755 29.7891 -7.2954 30.3248 -6.93073 30.838C-6.56607 31.3513 -6.2059 31.851 -5.81873 32.3147C-5.4561 32.7554 -5.06509 33.172 -4.6482 33.5618C-4.32295 33.8702 -3.9544 34.1296 -3.55421 34.3316C-3.44833 34.3782 -3.33601 34.4086 -3.22106 34.4216C-3.15803 34.4216 -3.15353 34.4216 -3.14452 34.3901L-3.59473 34.5387C-2.6448 34.0885 -1.72639 33.5573 -0.830482 33.026C-0.38028 32.7559 0.0699224 32.4723 0.484109 32.1841C0.898295 31.896 1.33949 31.6034 1.74918 31.2837C1.95177 31.1307 2.15886 30.9731 2.35695 30.8335C2.55504 30.694 2.75313 30.5139 2.95122 30.3518C3.3429 30.0277 3.71657 29.69 4.08123 29.3524C4.44589 29.0147 4.79255 28.659 5.1212 28.3034C5.28777 28.1278 5.44084 27.9522 5.5714 27.7766C5.64793 27.6911 5.71997 27.6011 5.783 27.52L5.87754 27.403L5.91355 27.3535C6.29372 26.7994 6.87505 26.4156 7.53387 26.2836C8.1927 26.1516 8.87702 26.2819 9.44127 26.6467C10.0055 27.0115 10.4052 27.5821 10.5552 28.2371C10.7052 28.892 10.5937 29.5797 10.2445 30.1537L10.294 30.1222Z" fill="#E6AE76"/>
<path d="M-10.0146 24.9449C-7.88967 28.9967 -5.66117 32.0311 -3.21657 34.156C-0.695435 32.873 6.20617 26.6602 7.44873 26.0524L7.64682 34.1785C4.54943 37.1904 -0.740453 40.1347 -2.37019 40.3238C-7.18736 41.3818 -10.0011 34.5477 -13.049 26.7142L-10.0146 24.9449Z" fill="#407BFF"/>
<path d="M7.44871 26.066C7.44871 26.066 3.10425 30.9687 7.2056 61.3168H29.0314C29.1845 57.9673 27.0775 41.634 30.31 25.8544C27.8979 25.3966 25.4587 25.0958 23.0077 24.954C19.9189 24.776 16.8224 24.776 13.7335 24.954C11.6129 25.1612 9.51167 25.533 7.44871 26.066Z" fill="#407BFF"/>
<path d="M21.8823 16.5757C21.4591 18.9933 21.0854 23.4143 22.7827 24.9855C22.7827 24.9855 20.5767 28.3035 17.0156 28.461C13.9317 28.5961 15.3003 25.1475 15.3003 25.1475C17.9745 24.4452 17.862 22.4463 17.3532 20.596L21.8823 16.5757Z" fill="#E6AE76"/>
<path opacity="0.2" d="M20.0274 18.2144L17.3577 20.596C17.4831 21.0287 17.5705 21.4716 17.6188 21.9196C18.6408 21.7485 20.8423 19.5605 20.9278 18.489C20.9998 18.0568 20.1535 18.6421 20.0274 18.2144Z" fill="black"/>
<path d="M29.8913 27.5877L30.0804 27.6507L30.22 27.7002L30.4721 27.7993C30.6387 27.8623 30.7962 27.9298 30.9493 27.9929C31.2554 28.1279 31.5481 28.272 31.8497 28.4431C32.426 28.7312 32.9707 29.0553 33.5019 29.3885C34.5476 30.0555 35.5436 30.7973 36.4823 31.608C36.9325 32.0087 37.3827 32.4229 37.8329 32.846C38.2831 33.2692 38.6928 33.7104 39.098 34.1606C39.9097 35.0514 40.6717 35.9862 41.3805 36.9609L41.4705 37.0824C41.5402 37.1745 41.5991 37.2742 41.6461 37.3796C41.9214 37.9638 42.0746 38.598 42.0963 39.2434C42.1193 39.8024 42.054 40.3615 41.9027 40.9002C41.6593 41.7639 41.2793 42.5831 40.7772 43.3268C40.3526 43.9719 39.8785 44.583 39.3591 45.1546C38.8594 45.7083 38.3506 46.2261 37.8239 46.7123C37.2972 47.1985 36.7569 47.6622 36.2122 48.1034C35.6674 48.5446 35.1092 48.9678 34.5464 49.3775C33.9837 49.7872 33.4119 50.1743 32.8311 50.5525L31.9532 51.1063C31.6516 51.2864 31.3635 51.4574 31.0528 51.6375C30.7788 51.7886 30.4589 51.8344 30.1535 51.7662C29.8481 51.6979 29.5781 51.5204 29.3944 51.267C29.2107 51.0136 29.126 50.7018 29.1561 50.3903C29.1863 50.0788 29.3293 49.789 29.5582 49.5756L29.5852 49.5486L30.301 48.8913L31.0168 48.2205C31.494 47.7703 31.9623 47.3201 32.4215 46.8699C32.8807 46.4197 33.3219 45.9424 33.7721 45.4742C34.2223 45.006 34.6365 44.5288 35.0371 44.0471C35.4378 43.5654 35.8295 43.0792 36.1761 42.5884C36.5071 42.1235 36.8079 41.6378 37.0766 41.1343C37.2886 40.7405 37.4404 40.3171 37.5268 39.8782C37.5486 39.7652 37.5486 39.6491 37.5268 39.5361C37.5268 39.473 37.4907 39.473 37.4772 39.4685L37.7429 39.8827C37.045 39.0859 36.3112 38.334 35.5639 37.6047C35.1902 37.24 34.803 36.8934 34.4114 36.5512C34.0197 36.2091 33.628 35.8804 33.2228 35.5608L32.615 35.1106L31.9983 34.6604C31.5841 34.3677 31.1564 34.0931 30.7377 33.8275C30.319 33.5619 29.8823 33.3188 29.4546 33.0936C29.243 32.9766 29.0314 32.8776 28.8243 32.7785L28.5227 32.6389L28.3831 32.5804H28.3246H28.3021C27.97 32.4847 27.6605 32.3231 27.3921 32.1054C27.1236 31.8877 26.9016 31.6183 26.7393 31.3132C26.577 31.008 26.4777 30.6734 26.4472 30.3291C26.4168 29.9848 26.4558 29.6379 26.562 29.309C26.6683 28.9801 26.8395 28.6759 27.0655 28.4145C27.2916 28.153 27.5679 27.9397 27.8781 27.7871C28.1882 27.6345 28.5258 27.5458 28.8709 27.5262C29.216 27.5067 29.5614 27.5567 29.8868 27.6732L29.8913 27.5877Z" fill="#E6AE76"/>
<path d="M30.1525 48.5446C33.5245 45.4382 35.8656 42.5028 37.2882 39.5945C35.3928 37.4876 29.5537 33.8409 28.5678 33.1881C27.5818 32.5353 25.664 31.0317 25.664 28.3755C25.664 24.8414 30.2965 25.8543 30.2965 25.8543C34.0062 28.0648 42.4295 35.6507 43.0373 37.1769C45.2883 41.5529 39.4357 46.0414 32.6556 51.0162L30.1525 48.5446Z" fill="#407BFF"/>
<path d="M15.5524 8.37295C17.1461 9.45794 16.4258 11.3038 12.8241 14.1581C11.361 12.2582 11.1179 8.57105 12.2794 7.64363C13.4409 6.71621 14.1748 7.43653 15.5524 8.37295Z" fill="#263238"/>
<path d="M22.409 11.3442C22.2334 15.2385 22.3279 17.5255 20.401 19.5559C17.4972 22.6128 12.6621 20.9066 11.6671 17.0438C10.7667 13.5637 11.2169 7.77864 14.9896 6.16691C15.8217 5.80702 16.7319 5.66585 17.6339 5.75682C18.5359 5.84778 19.3996 6.16786 20.143 6.68664C20.8865 7.20542 21.4849 7.90567 21.8815 8.72087C22.2781 9.53606 22.4597 10.4391 22.409 11.3442Z" fill="#E6AE76"/>
<path d="M16.6149 12.5103C16.6149 12.8254 16.4573 13.0866 16.2502 13.0866C16.0431 13.0866 15.8721 12.839 15.8676 12.5238C15.8631 12.2087 16.0206 11.9476 16.2277 11.943C16.4348 11.9385 16.5879 12.2042 16.6149 12.5103Z" fill="#263238"/>
<path d="M13.0132 12.5778C13.0132 12.8929 12.8557 13.1541 12.6486 13.1541C12.4415 13.1541 12.2659 12.9064 12.2614 12.5868C12.2569 12.2672 12.4235 12.0105 12.6261 12.006C12.8287 12.0015 13.0087 12.2582 13.0132 12.5778Z" fill="#263238"/>
<path d="M14.1748 12.7039C13.8139 13.6796 13.32 14.6007 12.7071 15.4412C12.926 15.5919 13.1752 15.693 13.4373 15.7373C13.6994 15.7817 13.968 15.7682 14.2243 15.6978L14.1748 12.7039Z" fill="#D08245"/>
<path d="M17.5783 11.3578C17.6193 11.3625 17.6606 11.3529 17.6954 11.3308C17.7151 11.3162 17.7317 11.2978 17.7442 11.2767C17.7567 11.2555 17.7649 11.2321 17.7682 11.2078C17.7716 11.1835 17.7701 11.1588 17.7637 11.135C17.7574 11.1113 17.7464 11.0891 17.7314 11.0697C17.5558 10.832 17.3253 10.6402 17.0595 10.5109C16.7938 10.3815 16.5007 10.3184 16.2052 10.3269C16.1816 10.328 16.1584 10.3338 16.137 10.344C16.1155 10.3541 16.0963 10.3683 16.0804 10.3859C16.0646 10.4035 16.0523 10.424 16.0443 10.4463C16.0364 10.4686 16.0329 10.4923 16.0341 10.5159C16.0408 10.5641 16.0654 10.6079 16.1029 10.6388C16.1405 10.6696 16.1882 10.6852 16.2367 10.6825C16.4696 10.6798 16.6997 10.7327 16.908 10.8369C17.1163 10.941 17.2967 11.0934 17.4343 11.2813C17.4513 11.3038 17.473 11.3223 17.4978 11.3355C17.5227 11.3487 17.5502 11.3563 17.5783 11.3578Z" fill="#263238"/>
<path d="M11.3565 11.3893C11.3916 11.3885 11.4257 11.378 11.4551 11.3589C11.4845 11.3398 11.5081 11.3129 11.5231 11.2812C11.6121 11.0631 11.7522 10.8695 11.9316 10.7167C12.111 10.564 12.3245 10.4565 12.5541 10.4034C12.603 10.3968 12.6474 10.371 12.6773 10.3318C12.7073 10.2925 12.7205 10.243 12.7139 10.194C12.7073 10.1451 12.6816 10.1007 12.6423 10.0707C12.6031 10.0408 12.5535 10.0276 12.5045 10.0342C12.2153 10.0951 11.9448 10.2241 11.7154 10.4104C11.486 10.5967 11.3043 10.8351 11.1854 11.1057C11.1653 11.1505 11.1634 11.2015 11.1802 11.2477C11.197 11.294 11.2312 11.3318 11.2755 11.3533C11.299 11.372 11.3269 11.3844 11.3565 11.3893Z" fill="#263238"/>
<path d="M20.7972 7.92279C18.9964 8.57558 19.244 10.534 22.0398 14.1941C23.9261 12.7129 25.0651 9.19236 24.1602 8.01283C23.2553 6.8333 22.3774 7.35553 20.7972 7.92279Z" fill="#263238"/>
<path d="M24.3133 14.4237C24.188 14.8938 23.9712 15.3346 23.6753 15.7209C23.3795 16.1072 23.0103 16.4313 22.5891 16.6747C21.4591 17.314 20.5857 16.3776 20.6352 15.1485C20.6847 14.041 21.333 12.3753 22.5936 12.2402C23.8541 12.1052 24.6195 13.2622 24.3133 14.4237Z" fill="#E6AE76"/>
<path d="M22.6386 8.0983C22.6386 8.0983 23.0888 5.94183 21.8597 4.71277C20.6307 3.48372 15.5569 3.81237 12.7251 4.26257C9.89333 4.71277 7.1606 8.1073 7.1606 8.1073H11.6311C11.1809 8.30089 10.7847 8.91767 10.4021 9.56596C14.1342 9.25532 18.3887 9.16528 19.8923 7.90021L20.0904 8.35041L21.1349 8.42695L22.6386 8.0983Z" fill="#263238"/>
<path d="M14.2378 17.1564C15.2829 16.9048 16.2741 16.4672 17.1641 15.8643C17.3622 17.3905 16.6058 18.444 15.2012 18.7681L14.2378 17.1564Z" fill="#263238"/>
<path d="M15.899 18.507C16.1991 18.3638 16.4638 18.1559 16.674 17.8983C16.8841 17.6406 17.0346 17.3396 17.1146 17.0168C16.7298 17.0732 16.3757 17.259 16.1106 17.5436C16.011 17.681 15.9408 17.8375 15.9043 18.0032C15.8679 18.169 15.8661 18.3405 15.899 18.507Z" fill="#DE5753"/>
<path d="M13.1348 13.6538H11.6716C11.4786 13.6526 11.2937 13.5754 11.1572 13.4389C11.0207 13.3023 10.9435 13.1175 10.9423 12.9245V12.0241C10.9423 11.8302 11.019 11.6442 11.1556 11.5067C11.2923 11.3692 11.4778 11.2914 11.6716 11.2902H13.1348C13.2309 11.2902 13.3262 11.3092 13.4149 11.3462C13.5037 11.3831 13.5843 11.4372 13.6521 11.5054C13.7199 11.5736 13.7735 11.6546 13.8099 11.7436C13.8463 11.8326 13.8647 11.9279 13.8641 12.0241V12.9245C13.8641 13.1179 13.7873 13.3034 13.6505 13.4402C13.5137 13.5769 13.3282 13.6538 13.1348 13.6538ZM11.6716 11.7044C11.6328 11.7044 11.5944 11.7121 11.5586 11.7271C11.5228 11.7421 11.4903 11.7641 11.4631 11.7917C11.4359 11.8194 11.4144 11.8522 11.4 11.8882C11.3855 11.9242 11.3784 11.9627 11.379 12.0015V12.9019C11.379 12.9404 11.3866 12.9784 11.4013 13.0139C11.416 13.0494 11.4375 13.0817 11.4647 13.1089C11.4919 13.136 11.5241 13.1576 11.5596 13.1723C11.5951 13.187 11.6332 13.1946 11.6716 13.1946H13.1348C13.2128 13.1946 13.2877 13.1639 13.3433 13.1091C13.3989 13.0544 13.4307 12.98 13.4319 12.9019V12.0015C13.4319 11.9227 13.4006 11.8472 13.3449 11.7914C13.2892 11.7357 13.2136 11.7044 13.1348 11.7044H11.6716Z" fill="#263238"/>
<path d="M16.6239 13.6538H15.1652C14.9714 13.6538 14.7854 13.5771 14.6479 13.4404C14.5104 13.3038 14.4326 13.1183 14.4314 12.9245V12.0241C14.4314 11.8294 14.5087 11.6428 14.6463 11.5052C14.7839 11.3675 14.9706 11.2902 15.1652 11.2902H16.6239C16.8185 11.2902 17.0052 11.3675 17.1428 11.5052C17.2804 11.6428 17.3577 11.8294 17.3577 12.0241V12.9245C17.3565 13.1183 17.2787 13.3038 17.1412 13.4404C17.0037 13.5771 16.8177 13.6538 16.6239 13.6538ZM15.1652 11.7044C15.126 11.7038 15.0871 11.7111 15.0508 11.7258C15.0145 11.7405 14.9815 11.7624 14.9538 11.7901C14.9261 11.8178 14.9042 11.8508 14.8895 11.8871C14.8748 11.9234 14.8675 11.9624 14.8681 12.0015V12.9019C14.8681 12.9408 14.8758 12.9792 14.8908 13.015C14.9058 13.0508 14.9277 13.0832 14.9554 13.1105C14.983 13.1377 15.0158 13.1592 15.0519 13.1736C15.0879 13.188 15.1264 13.1952 15.1652 13.1946H16.6239C16.7019 13.1946 16.7768 13.1639 16.8324 13.1091C16.888 13.0544 16.9198 12.98 16.921 12.9019V12.0015C16.921 11.9625 16.9133 11.9239 16.8984 11.8878C16.8835 11.8518 16.8616 11.819 16.834 11.7914C16.8064 11.7638 16.7736 11.742 16.7376 11.727C16.7015 11.7121 16.6629 11.7044 16.6239 11.7044H15.1652Z" fill="#263238"/>
<path d="M14.652 12.2447H13.6481V12.6814H14.652V12.2447Z" fill="#263238"/>
<path d="M21.1259 12.2447H17.3667V12.6814H21.1259V12.2447Z" fill="#263238"/>
<path d="M15.692 29.2578C15.1067 30.6985 12.8422 37.6361 12.2029 46.271C12.392 47.0903 12.6186 47.9142 12.8827 48.7426C13.3914 47.9862 14.2333 47.1669 14.8141 46.415C15.1247 38.649 15.845 31.1892 16.4798 29.3434L15.692 29.2578Z" fill="#263238"/>
<path d="M15.6605 30.4509L15.1022 28.5466L16.4798 28.0604L17.4388 28.7492L15.6605 30.4509Z" fill="#263238"/>
<path d="M16.4798 28.0603C16.4798 28.0603 17.2722 29.2534 18.2221 30.4464C19.8158 29.7621 23.575 27.8892 23.6021 25.8633C23.4279 25.4296 23.11 25.0688 22.7016 24.8414C20.8144 26.2421 18.7134 27.329 16.4798 28.0603Z" fill="white"/>
<path d="M16.4798 28.0603C15.6621 28.6373 14.9301 29.3269 14.3053 30.1087C13.2699 29.2488 14.2063 25.5616 14.6565 25.1835C15.1178 24.9005 15.6565 24.7698 16.1962 24.8098C16.1962 24.8098 14.76 27.4795 16.4798 28.0603Z" fill="white"/>
<path opacity="0.2" d="M1.39351 38.7256C3.48245 37.1995 5.06716 35.4752 5.87302 33.4448C5.6768 34.2902 5.54734 35.1497 5.48585 36.0154C4.1912 37.0196 2.82327 37.9255 1.39351 38.7256Z" fill="black"/>
<path opacity="0.2" d="M28.5812 40.7245C28.3066 38.0998 27.9149 34.5027 27.4512 32.3012C27.9826 32.7688 28.5387 33.2076 29.117 33.6158" fill="black"/>
</g>
<defs>
<clipPath id="clip0_18_1077">
<rect width="36" height="36" rx="18" fill="white"/>
</clipPath>
</defs>
</svg>
