<svg width="37" height="37" viewBox="0 0 37 37" fill="none" xmlns="http://www.w3.org/2000/svg">
<g clip-path="url(#clip0_18_390)">
<rect width="37" height="37" rx="18.5" fill="white"/>
<path d="M25.1071 36.4385C30.2158 31.3299 30.2158 23.0472 25.1071 17.9385C19.9985 12.8299 11.7158 12.8299 6.60715 17.9385C1.49851 23.0472 1.49851 31.3299 6.60715 36.4385C11.7158 41.5472 19.9985 41.5472 25.1071 36.4385Z" fill="#E0E0E0"/>
<path d="M23.3518 9.50745C23.1231 9.79448 22.9835 10.1423 22.9505 10.5079C22.9174 10.8734 22.9923 11.2406 23.1659 11.564C23.3295 11.8578 23.5787 12.1219 23.6159 12.4547C23.6772 12.9958 23.1529 13.483 23.244 14.0223C23.3016 14.3942 23.6159 14.6489 23.7869 14.978C23.8927 15.1921 23.9353 15.4318 23.91 15.6692C23.8846 15.9066 23.7923 16.1318 23.6438 16.3187C23.4058 16.6088 23.032 16.7929 22.8777 17.1369C22.7624 17.3898 22.7903 17.6948 22.6917 17.9495C22.6039 18.149 22.466 18.3223 22.2913 18.4526C22.1166 18.583 21.9112 18.6659 21.695 18.6933C21.2603 18.7455 20.8197 18.721 20.3934 18.6208L20.4882 18.1503C20.4076 18.2753 20.2977 18.3787 20.1681 18.4516C20.0385 18.5245 19.8931 18.5647 19.7444 18.5687C19.4467 18.5746 19.15 18.5306 18.8668 18.4385C18.6901 17.6408 18.5172 16.7985 18.7663 16.0212C18.9932 15.3221 19.5287 14.7754 19.975 14.1915C20.4705 13.5432 20.8672 12.8251 21.1521 12.0605C21.3566 11.512 21.5035 10.9448 21.7899 10.4242C22.0762 9.90352 22.5337 9.45352 23.1064 9.34381" fill="#263238"/>
<path d="M31.859 20.495L29.2706 20.681L29.2445 20.0153C29.21 19.6854 29.2887 19.3536 29.4677 19.0744C29.4963 19.0252 29.517 18.9719 29.529 18.9163C29.5476 18.7192 29.2576 17.73 29.1571 17.3674C29.0307 16.9323 29.278 16.7017 29.3747 16.8802C29.5495 17.2056 30.0125 18.6021 30.1576 18.7397C30.3026 18.8773 30.2189 18.1465 30.2189 18.1465C29.9921 16.6087 29.8935 16.3856 30.1668 16.3279C30.4811 16.261 30.827 18.55 30.827 18.55C30.827 18.55 30.7805 18.2302 31.0259 18.1651C31.2714 18.1 31.3848 18.4143 31.3848 18.4143C31.3532 18.2525 31.5856 18.2283 31.5856 18.2283C32.1658 18.3083 31.8646 20.5155 31.8646 20.5155L29.2762 20.7014L28.0359 29.3573L26.7119 27.3286L23.257 29.7943L26.3716 33.5133C26.6422 33.8352 26.9826 34.0912 27.3671 34.2617C27.7515 34.4321 28.1698 34.5126 28.59 34.4969C29.2771 34.472 29.93 34.1911 30.4206 33.7095C30.9112 33.2278 31.204 32.5802 31.2416 31.8937L31.859 20.495Z" fill="#EB996E"/>
<path d="M29.834 20.5193C29.8228 20.5063 29.9604 20.3854 30.1445 20.1585C30.2514 20.0258 30.3484 19.8853 30.4346 19.7383C30.4861 19.6515 30.5333 19.5621 30.5759 19.4705C30.6282 19.385 30.6588 19.2879 30.6652 19.1879C30.6644 19.1647 30.657 19.1421 30.6439 19.123C30.6307 19.1039 30.6122 19.089 30.5908 19.08C30.5399 19.0715 30.4876 19.08 30.442 19.1042C30.3404 19.152 30.2438 19.21 30.1538 19.2771C30.0083 19.3871 29.8825 19.5211 29.7819 19.6732L29.7522 19.716L29.7298 19.6713C29.6766 19.5755 29.6074 19.4893 29.5253 19.4166C29.5253 19.4166 29.6666 19.4501 29.7875 19.6509H29.7354C29.8307 19.4846 29.9569 19.3382 30.1073 19.2195C30.2012 19.1466 30.3029 19.0842 30.4104 19.0335C30.4766 18.9985 30.553 18.988 30.6261 19.0038C30.6654 19.0177 30.6998 19.0426 30.7252 19.0756C30.7506 19.1086 30.7659 19.1482 30.7693 19.1897C30.7659 19.3094 30.7313 19.426 30.6689 19.5282C30.6236 19.6207 30.5733 19.7107 30.5183 19.7978C30.4264 19.9471 30.3212 20.0877 30.204 20.218C30.0979 20.3379 29.9729 20.4397 29.834 20.5193Z" fill="#D1734A"/>
<path d="M30.8586 18.6728C30.8743 18.8311 30.8743 18.9905 30.8586 19.1488C30.8586 19.305 30.8418 19.4779 30.8307 19.662C30.8233 19.7598 30.8233 19.858 30.8307 19.9558C30.8307 20.0469 30.9181 20.125 30.9831 20.0878C31.0482 20.0507 31.0854 19.9391 31.1133 19.8405C31.1412 19.742 31.1635 19.6434 31.184 19.5486C31.2249 19.3626 31.2546 19.1879 31.2825 19.0447C31.3009 18.8866 31.3377 18.7312 31.3922 18.5817C31.392 18.7407 31.3777 18.8993 31.3495 19.0558C31.3309 19.2009 31.3086 19.3738 31.2714 19.5672C31.2546 19.662 31.2323 19.7624 31.2044 19.8666C31.1955 19.9278 31.1745 19.9867 31.1426 20.0397C31.1106 20.0927 31.0685 20.1388 31.0185 20.1752C30.9845 20.1908 30.9466 20.1957 30.9098 20.1894C30.873 20.1831 30.8389 20.1658 30.8121 20.1399C30.7646 20.095 30.7354 20.034 30.7303 19.9688C30.7244 19.8646 30.7281 19.76 30.7414 19.6564C30.76 19.473 30.7767 19.3019 30.7916 19.1432C30.7976 18.9845 30.82 18.8269 30.8586 18.6728Z" fill="#D1734A"/>
<path d="M31.3012 19.3329C31.316 19.3329 31.2788 19.4408 31.29 19.6081C31.2933 19.7004 31.3209 19.7902 31.37 19.8685C31.4016 19.9001 31.4239 19.9019 31.4536 19.8685C31.4871 19.818 31.5157 19.7644 31.5392 19.7085C31.6572 19.4151 31.7499 19.1122 31.8162 18.803C31.8453 19.1297 31.7808 19.458 31.6303 19.7495C31.6036 19.8145 31.5706 19.8768 31.5317 19.9354C31.5181 19.953 31.5006 19.9674 31.4807 19.9774C31.4607 19.9873 31.4388 19.9927 31.4164 19.993C31.3952 19.9922 31.3744 19.9868 31.3555 19.9772C31.3365 19.9676 31.3199 19.9539 31.3067 19.9373C31.2696 19.8877 31.2459 19.8294 31.2379 19.7681C31.2283 19.7191 31.2239 19.6692 31.2249 19.6193C31.2193 19.4259 31.2844 19.3274 31.3012 19.3329Z" fill="#D1734A"/>
<path d="M20.4008 35.6053L20.6426 39.3689C13.2809 42.1897 7.81213 37.5094 7.81213 37.5094L8.91294 34.1419L9.09889 28.2622L7.68568 29.8297L7.01813 29.2719L3.6506 26.4678L2.92726 25.8635L6.42867 22.1687C10.8561 17.4028 14.3017 18.8588 14.3017 18.8588L19.4785 19.3441C19.4785 19.3441 23.0599 19.8518 24.7929 22.9906C26.2043 25.5455 27.7402 28.251 27.7402 28.251L23.3035 31.4122L21.8921 28.82L20.4008 35.6053Z" fill="#455A64"/>
<path d="M2.77664 27.1391C2.77664 27.3603 2.77664 27.5798 2.78966 27.8029C2.8202 28.676 2.93857 29.5438 3.14296 30.3932V30.4173C3.16899 30.5233 3.19874 30.6275 3.2285 30.7316C3.34378 31.1407 3.49626 31.5014 3.6413 31.8975C3.6599 31.9477 3.67849 31.996 3.69895 32.0462C4.16754 31.9235 5.41153 30.7446 6.93073 29.2068L3.55948 26.3953C3.12622 26.8676 2.92168 27.0833 2.77664 27.1391Z" fill="#EB996E"/>
<path d="M19.0081 19.8331C19.194 18.5501 19.4042 17.2038 19.4042 17.2038C19.4042 17.2038 21.0944 17.1573 21.7341 15.0487C22.344 13.0367 22.6638 8.24109 22.6638 8.24109C21.556 7.60815 20.281 7.32913 19.0101 7.44147C17.7391 7.55381 16.5328 8.05214 15.5532 8.8696L14.2515 19.3106C14.1009 20.5211 15.0232 21.6164 16.323 21.7688C17.6339 21.9213 18.8426 21.0548 19.0081 19.8331Z" fill="#EB996E"/>
<path d="M21.537 11.8652C21.5276 11.9375 21.4906 12.0032 21.4337 12.0487C21.3768 12.0941 21.3045 12.1157 21.232 12.1088C21.1963 12.1067 21.1614 12.0975 21.1293 12.0817C21.0973 12.0659 21.0687 12.0438 21.0453 12.0168C21.0219 11.9897 21.0042 11.9583 20.9931 11.9243C20.9821 11.8903 20.9779 11.8544 20.981 11.8188C20.9907 11.7469 21.0279 11.6816 21.0848 11.6365C21.1416 11.5914 21.2137 11.5701 21.2859 11.577C21.3215 11.5791 21.3562 11.5883 21.3881 11.604C21.4201 11.6197 21.4486 11.6416 21.4719 11.6684C21.4953 11.6953 21.5131 11.7265 21.5243 11.7603C21.5354 11.7941 21.5397 11.8298 21.537 11.8652Z" fill="#263238"/>
<path d="M22.0279 11.6179C21.9889 11.6495 21.801 11.4654 21.5035 11.432C21.206 11.3985 20.9661 11.5119 20.9457 11.471C20.9252 11.4301 20.9754 11.3911 21.0796 11.3353C21.2208 11.2642 21.3805 11.2382 21.537 11.2609C21.6921 11.2821 21.8366 11.3517 21.9498 11.4599C22.026 11.5342 22.0465 11.6068 22.0279 11.6179Z" fill="#263238"/>
<path d="M18.4837 11.4989C18.4744 11.571 18.4373 11.6366 18.3804 11.6817C18.3234 11.7269 18.2511 11.748 18.1788 11.7406C18.1431 11.7388 18.1083 11.7298 18.0762 11.7142C18.0442 11.6985 18.0156 11.6766 17.9921 11.6497C17.9687 11.6229 17.951 11.5915 17.9399 11.5576C17.9288 11.5237 17.9247 11.488 17.9277 11.4524C17.937 11.3802 17.9741 11.3144 18.031 11.269C18.0879 11.2235 18.1602 11.202 18.2327 11.2088C18.2683 11.2112 18.3031 11.2206 18.335 11.2365C18.367 11.2524 18.3954 11.2745 18.4188 11.3014C18.4421 11.3284 18.4599 11.3598 18.471 11.3937C18.4822 11.4276 18.4865 11.4633 18.4837 11.4989Z" fill="#263238"/>
<path d="M18.9077 11.298C18.8686 11.3296 18.6808 11.1455 18.3833 11.1121C18.0858 11.0786 17.8459 11.1902 17.8254 11.1493C17.805 11.1084 17.8552 11.0712 17.9593 11.0154C18.1006 10.9444 18.2603 10.9185 18.4168 10.941C18.5723 10.9608 18.7172 11.0307 18.8296 11.14C18.9039 11.2144 18.9263 11.285 18.9077 11.298Z" fill="#263238"/>
<path d="M19.6831 13.6521C19.8471 13.6246 20.0139 13.6177 20.1796 13.6317C20.2558 13.6317 20.3302 13.6317 20.3507 13.5796C20.3667 13.5018 20.3595 13.421 20.3302 13.3472C20.2837 13.1612 20.2354 12.9492 20.1852 12.7373C19.9862 11.8707 19.8542 11.1623 19.8895 11.153C19.9248 11.1437 20.1145 11.8429 20.3116 12.7094C20.36 12.9232 20.4046 13.1259 20.4474 13.3211C20.4827 13.4191 20.4827 13.5263 20.4474 13.6242C20.4327 13.6495 20.4125 13.6711 20.3884 13.6875C20.3643 13.7039 20.3367 13.7147 20.3079 13.7191C20.2641 13.7247 20.2197 13.7247 20.1759 13.7191C20.0095 13.7171 19.844 13.6946 19.6831 13.6521Z" fill="#263238"/>
<path d="M19.4004 17.2038C18.3803 17.081 17.4146 16.6766 16.6112 16.0361C16.6112 16.0361 17.1077 17.6129 19.2926 17.7096L19.4004 17.2038Z" fill="#D1734A"/>
<path d="M20.4287 7.57535C20.5682 7.91564 20.3488 8.31915 20.0382 8.50509C19.7107 8.67488 19.3519 8.77611 18.9839 8.80261C18.6154 8.83156 18.263 8.96581 17.9686 9.18938C17.4629 9.64868 17.5967 10.3051 17.0854 10.902C16.9664 11.0697 16.8029 11.2008 16.6132 11.2803C16.4236 11.3598 16.2155 11.3847 16.0125 11.352C15.6034 11.2943 15.0734 11.3892 14.867 11.8615C14.6606 12.3338 14.9098 12.6815 15.1385 13.1148C15.3672 13.548 15.3059 13.9924 15.1757 14.4666C15.0827 14.8087 14.7889 15.0765 14.7238 15.4261C14.6197 15.9839 15.0957 16.605 14.774 17.0624C14.4524 17.5199 13.636 17.3172 13.2772 17.743C13.147 17.8936 13.0726 18.1149 12.8811 18.1744C12.762 18.1912 12.6407 18.169 12.5352 18.1112L10.8617 17.4027C10.9045 17.2298 10.9491 17.055 10.9937 16.8821C10.87 17.0089 10.7179 17.1045 10.5499 17.1609C10.382 17.2173 10.203 17.2329 10.0278 17.2064C9.85258 17.1798 9.68623 17.112 9.54249 17.0083C9.39875 16.9047 9.28174 16.7684 9.20117 16.6106C9.55181 16.4069 9.87649 16.1616 10.1681 15.8798C10.456 15.593 10.6309 15.2121 10.6609 14.8069C10.6776 14.316 10.4117 13.8195 10.5605 13.3528C10.7743 12.6852 11.6761 12.5179 12.0741 11.9451C12.446 11.4096 12.3214 10.6323 12.7063 10.1024C13.1544 9.48876 14.1009 9.46087 14.6141 8.8993C14.9619 8.52741 15.0418 7.96956 15.2947 7.51771C15.6222 6.98655 16.1339 6.59467 16.7321 6.41689C17.3263 6.2435 17.9455 6.17121 18.5637 6.20305C19.0278 6.18121 19.4901 6.27381 19.9099 6.47268C20.3135 6.69767 20.6184 7.15883 20.5236 7.61254" fill="#263238"/>
<path d="M16.0125 11.3576C15.7886 11.2762 15.5465 11.2588 15.3133 11.3074C15.1968 11.3314 15.0861 11.3783 14.9878 11.4453C14.8895 11.5123 14.8055 11.5982 14.7406 11.6979C14.6216 11.9064 14.5857 12.1521 14.6402 12.3859C14.696 12.6178 14.8027 12.8344 14.9526 13.02C15.0486 13.1592 15.176 13.2738 15.3245 13.3547C15.3999 13.3954 15.4842 13.4167 15.5699 13.4167C15.6556 13.4167 15.74 13.3954 15.8154 13.3547" fill="#EB996E"/>
<path d="M15.6926 12.7373C15.7186 12.7503 15.5978 12.8768 15.3951 12.7894C15.2893 12.7374 15.2075 12.6469 15.1664 12.5365C15.1196 12.4086 15.0988 12.2727 15.105 12.1367C15.1075 11.9919 15.1616 11.8528 15.2575 11.7443C15.298 11.6982 15.3486 11.662 15.4054 11.6384C15.4621 11.6149 15.5235 11.6047 15.5848 11.6086C15.8023 11.6328 15.8488 11.7945 15.8246 11.7945C15.8005 11.7945 15.7317 11.722 15.5848 11.735C15.4937 11.7569 15.4134 11.8104 15.3582 11.886C15.303 11.9617 15.2765 12.0545 15.2835 12.1479C15.2835 12.3896 15.3375 12.6183 15.4565 12.6908C15.5755 12.7633 15.6815 12.7224 15.6926 12.7373Z" fill="#D1734A"/>
<path d="M20.4362 7.70187C20.3515 7.93442 20.3496 8.18908 20.4309 8.42284C20.5122 8.6566 20.6717 8.85514 20.8825 8.98492C21.1242 9.12438 21.4217 9.17087 21.6263 9.35682C21.8166 9.56345 21.9273 9.83103 21.9386 10.1118C21.9483 10.3895 22.0003 10.6642 22.093 10.9262C22.1439 11.0555 22.235 11.165 22.3528 11.2387C22.4707 11.3123 22.609 11.3462 22.7475 11.3353L23.2143 9.95743C23.3853 9.45165 23.5583 8.91054 23.4355 8.38802C23.2607 7.64423 22.5244 7.15705 21.788 6.95436C21.4507 6.83453 21.0819 6.83782 20.7467 6.96366C20.4269 7.11428 20.2093 7.5215 20.3748 7.83762" fill="#263238"/>
<path d="M11.4604 17.6259C11.4604 17.6259 11.5051 17.5924 11.5701 17.5087C11.6586 17.3839 11.7113 17.2374 11.7226 17.0848C11.7308 16.8411 11.7171 16.5971 11.6817 16.3559C11.6658 16.1995 11.681 16.0415 11.7263 15.891C11.7796 15.7224 11.8691 15.5676 11.9885 15.4373C12.2321 15.1602 12.5724 14.9445 12.8662 14.6489C13.0217 14.5023 13.1375 14.3187 13.2028 14.1152C13.2576 13.8954 13.2639 13.6664 13.2214 13.4439C13.186 13.2096 13.1265 12.9716 13.0968 12.7206C13.0595 12.4599 13.085 12.194 13.1712 11.9452C13.2644 11.6841 13.4226 11.451 13.6308 11.2678C13.839 11.0847 14.0904 10.9575 14.3612 10.8983C14.9079 10.7774 15.4769 10.8518 15.9232 10.6212C16.1404 10.5036 16.3124 10.3172 16.4122 10.0913C16.5081 9.86944 16.587 9.64069 16.6484 9.40698C16.7089 9.17783 16.8009 8.95818 16.9217 8.7543C17.0466 8.5621 17.2269 8.41232 17.4387 8.32476C17.8177 8.19707 18.2202 8.15453 18.6176 8.20017C18.9384 8.2316 19.2621 8.21278 19.5771 8.14439C19.8124 8.08859 20.0294 7.97334 20.2074 7.80968C20.3083 7.69454 20.3729 7.55226 20.3934 7.40059C20.412 7.29832 20.412 7.24068 20.4176 7.24254C20.4233 7.29631 20.4233 7.35054 20.4176 7.40431C20.4018 7.56391 20.3368 7.71466 20.2316 7.83571C20.0521 8.01079 19.8295 8.13525 19.5864 8.19645C19.2668 8.27178 18.9372 8.29563 18.6102 8.26711C18.2233 8.22669 17.8322 8.27176 17.4647 8.39914C17.269 8.48162 17.1029 8.62171 16.9887 8.80078C16.8733 8.99858 16.7857 9.21132 16.7284 9.43301C16.6666 9.67169 16.5871 9.9054 16.4903 10.1322C16.4356 10.2508 16.3643 10.361 16.2784 10.4594C16.1879 10.5589 16.081 10.6419 15.9622 10.7049C15.4676 10.9522 14.9005 10.8741 14.3761 10.9931C14.1229 11.0509 13.8884 11.1714 13.6941 11.3436C13.4997 11.5159 13.3519 11.7343 13.2641 11.9786C13.182 12.2136 13.1571 12.4648 13.1916 12.7113C13.2195 12.9549 13.2771 13.1929 13.3125 13.4328C13.3567 13.6678 13.3485 13.9097 13.2883 14.1412C13.2165 14.3544 13.0925 14.5462 12.9276 14.6991C12.6208 15.0022 12.2805 15.2123 12.0425 15.4763C11.9329 15.5914 11.8491 15.7286 11.7969 15.8787C11.7446 16.0288 11.725 16.1883 11.7394 16.3466C11.7718 16.5931 11.7799 16.8422 11.7635 17.0904C11.7476 17.2481 11.6877 17.3983 11.5906 17.5236C11.5541 17.5656 11.5099 17.6003 11.4604 17.6259Z" fill="#455A64"/>
<path d="M21.4273 18.7082C21.4584 18.6771 21.4875 18.6442 21.5147 18.6096C21.5834 18.5042 21.6219 18.382 21.6262 18.2563C21.6411 18.0927 21.5983 17.8844 21.6095 17.6501C21.6421 17.3751 21.7561 17.1162 21.9368 16.9063C22.1097 16.6665 22.3403 16.4173 22.4016 16.0826C22.463 15.7479 22.3198 15.389 22.2492 14.9985C22.208 14.7931 22.2163 14.5809 22.2733 14.3793C22.3425 14.1783 22.4395 13.988 22.5615 13.814C22.6805 13.6281 22.8126 13.4607 22.9148 13.271C23.0263 13.0849 23.0902 12.8741 23.1008 12.6574C23.092 12.4408 23.0203 12.2314 22.8944 12.0549C22.7671 11.8732 22.6639 11.6757 22.5876 11.4673C22.4611 11.0341 22.5597 10.6101 22.5876 10.2252C22.6079 10.0395 22.6041 9.85204 22.5764 9.66735C22.5492 9.49414 22.4803 9.33014 22.3756 9.18946C22.1657 8.94869 21.908 8.75428 21.6188 8.6186C21.3753 8.50246 21.1436 8.36296 20.9271 8.20208C20.7605 8.07975 20.6207 7.92473 20.5161 7.7465C20.4515 7.6326 20.414 7.50535 20.4064 7.37461C20.403 7.32976 20.4061 7.28466 20.4157 7.24072C20.4157 7.24072 20.4157 7.28721 20.4269 7.37275C20.4413 7.49811 20.4832 7.61875 20.5496 7.72605C20.6556 7.89469 20.7932 8.04119 20.9549 8.15745C21.1721 8.31173 21.403 8.44557 21.6448 8.55724C21.9467 8.69268 22.2162 8.89113 22.4351 9.13926C22.5506 9.28746 22.6279 9.46179 22.6601 9.6469C22.6908 9.83999 22.6965 10.0362 22.6768 10.2308C22.6508 10.6231 22.5597 11.0397 22.6768 11.4376C22.7517 11.6355 22.8517 11.823 22.9743 11.9954C23.1109 12.1864 23.1879 12.4135 23.1956 12.6481C23.1851 12.8812 23.1167 13.1081 22.9967 13.3082C22.8888 13.5053 22.7568 13.6801 22.6396 13.8661C22.5198 14.0339 22.4246 14.218 22.357 14.4128C22.3021 14.6 22.2931 14.7978 22.331 14.9892C22.3942 15.3611 22.5448 15.733 22.4741 16.1049C22.4381 16.2753 22.3679 16.4366 22.2677 16.5791C22.1748 16.7167 22.0818 16.8375 21.987 16.951C21.8115 17.1477 21.6971 17.3913 21.6578 17.652C21.6411 17.8826 21.6783 18.089 21.6578 18.2582C21.6489 18.3888 21.6024 18.5141 21.5239 18.6189C21.4992 18.6559 21.4661 18.6864 21.4273 18.7082Z" fill="#455A64"/>
<path d="M9.5619 16.7538C9.5619 16.7538 9.62327 16.7538 9.73856 16.7668C9.90706 16.7704 10.0744 16.7381 10.2295 16.672C10.4779 16.5706 10.6921 16.4003 10.8468 16.1811C11.044 15.8883 11.159 15.5479 11.1797 15.1956C11.2243 14.8051 11.1257 14.3811 11.1146 13.9069C11.1016 13.6584 11.1563 13.411 11.2726 13.191C11.4272 12.9787 11.6281 12.8044 11.8602 12.6815C12.0915 12.5612 12.2799 12.3722 12.3995 12.1404C12.4848 11.8795 12.525 11.606 12.5185 11.3315C12.5215 11.0356 12.5782 10.7426 12.6858 10.4669C12.7443 10.3238 12.8295 10.1932 12.9369 10.082C13.0571 9.97556 13.2057 9.90643 13.3646 9.88301C13.6732 9.82909 13.9726 9.8607 14.2608 9.82909C14.5405 9.80893 14.804 9.69035 15.0046 9.49438C15.1971 9.29897 15.3555 9.0727 15.4732 8.82496C15.5978 8.58323 15.6945 8.33406 15.8135 8.09605C15.9238 7.86167 16.0644 7.64285 16.2319 7.44523C16.3912 7.25351 16.6013 7.11047 16.8381 7.03242C17.0623 6.9682 17.3 6.9682 17.5242 7.03242C17.7252 7.08933 17.9211 7.16272 18.11 7.25184C18.4214 7.41922 18.7613 7.52706 19.1122 7.56981C19.3787 7.58281 19.645 7.54169 19.8951 7.44895C20.1086 7.36896 20.3087 7.25671 20.4882 7.1161C20.4487 7.16042 20.4044 7.20032 20.3562 7.2351C20.2191 7.33846 20.0682 7.42231 19.9081 7.48428C19.6547 7.58542 19.383 7.63291 19.1104 7.62374C18.7519 7.58615 18.4037 7.48143 18.0839 7.31506C17.8977 7.22813 17.7042 7.15782 17.5056 7.10494C17.2954 7.0445 17.0724 7.0445 16.8622 7.10494C16.6405 7.18074 16.4442 7.31656 16.2951 7.49729C16.1345 7.69115 15.9995 7.90489 15.8935 8.13324C15.6685 8.59439 15.4937 9.1448 15.0697 9.55946C14.9609 9.66415 14.8352 9.74966 14.6978 9.81235C14.5589 9.87187 14.4114 9.9089 14.2608 9.92206C13.9614 9.95367 13.6602 9.92206 13.372 9.97413C13.2339 9.99572 13.1048 10.0564 13.0001 10.1489C12.9021 10.2515 12.824 10.3713 12.7695 10.5022C12.6681 10.7678 12.614 11.0491 12.6096 11.3334C12.6154 11.6189 12.572 11.9032 12.4813 12.1739C12.3538 12.4218 12.1524 12.624 11.9049 12.7522C11.6856 12.8679 11.495 13.0312 11.347 13.2301C11.2372 13.4368 11.1852 13.6694 11.1964 13.9032C11.1964 14.3606 11.2987 14.7976 11.2503 15.2049C11.2237 15.5673 11.1004 15.916 10.8933 16.2146C10.7309 16.4372 10.5084 16.6088 10.2518 16.7092C10.0914 16.7737 9.91846 16.801 9.74599 16.7891C9.68336 16.7854 9.62148 16.7735 9.5619 16.7538Z" fill="#455A64"/>
<path d="M23.2273 9.66544C23.212 9.47844 23.1595 9.29637 23.0729 9.12991C22.971 8.95482 22.8366 8.80082 22.6769 8.6762C22.4775 8.52675 22.2609 8.40188 22.0316 8.3043C21.788 8.19087 21.5482 8.09046 21.3417 7.97517C21.1555 7.87456 20.9835 7.74948 20.8304 7.60327C20.7274 7.50457 20.6413 7.38961 20.5756 7.26299C20.5464 7.21906 20.5286 7.1686 20.5236 7.11609C20.621 7.27711 20.7398 7.42412 20.8769 7.55307C21.032 7.68462 21.2025 7.797 21.3845 7.88778C21.5872 7.99563 21.8252 8.09232 22.0725 8.20575C22.3088 8.30974 22.5312 8.44279 22.7345 8.60182C22.9 8.73583 23.0356 8.90306 23.1324 9.09272C23.1991 9.22061 23.2372 9.36146 23.244 9.50553C23.2502 9.55942 23.2444 9.614 23.2273 9.66544Z" fill="#455A64"/>
<path d="M19.0285 10.558C19.0099 10.5803 18.9448 10.558 18.8426 10.5264C18.7053 10.4947 18.565 10.4785 18.4242 10.478C18.2828 10.4765 18.1418 10.4915 18.0039 10.5227C17.898 10.5468 17.8329 10.5747 17.818 10.5543C17.8031 10.5338 17.8422 10.4613 17.9556 10.3962C18.1019 10.3216 18.2637 10.2827 18.4279 10.2827C18.5921 10.2827 18.754 10.3216 18.9002 10.3962C18.9969 10.4669 19.0378 10.5413 19.0285 10.558Z" fill="#263238"/>
<path d="M21.736 10.9243C21.7267 10.9764 21.5333 10.9931 21.3008 10.9596C21.0684 10.9262 20.888 10.8629 20.888 10.8016C20.888 10.7402 21.0907 10.7346 21.3231 10.7681C21.5556 10.8016 21.7434 10.8722 21.736 10.9243Z" fill="#263238"/>
<path d="M15.2277 13.2952C15.2277 13.2952 15.2463 13.3082 15.2742 13.3417C15.3143 13.3906 15.348 13.4443 15.3746 13.5016C15.4709 13.7148 15.4994 13.9523 15.4565 14.1822C15.3961 14.5168 15.2838 14.8399 15.1236 15.1398C15.0348 15.3114 15.006 15.5078 15.0418 15.6977C15.1074 15.897 15.1973 16.0875 15.3096 16.2648C15.422 16.4511 15.4712 16.6687 15.4498 16.8852C15.4283 17.1017 15.3374 17.3055 15.1906 17.4661C15.0653 17.6092 14.8991 17.7104 14.7145 17.7561C14.5585 17.7885 14.3997 17.8059 14.2404 17.8082C14.0166 17.8021 13.7957 17.8588 13.6026 17.9718C13.5363 18.0202 13.478 18.0785 13.4296 18.1448C13.4296 18.1448 13.4296 18.1206 13.4538 18.0834C13.4861 18.0283 13.5291 17.9803 13.5802 17.9421C13.7716 17.8119 13.9978 17.7426 14.2292 17.7431C14.3838 17.7364 14.5375 17.7158 14.6885 17.6818C14.858 17.6371 15.0098 17.5417 15.1236 17.4084C15.2483 17.2631 15.3284 17.0849 15.3542 16.8952C15.3745 16.6905 15.3289 16.4846 15.224 16.3076C15.1092 16.1222 15.0186 15.9229 14.9544 15.7144C14.9175 15.5076 14.9502 15.2945 15.0474 15.1082C15.1273 14.9223 15.2147 14.7754 15.2687 14.6173C15.324 14.4726 15.3663 14.3233 15.3951 14.171C15.4413 13.9526 15.4239 13.7254 15.3449 13.5165C15.2798 13.3696 15.2203 13.3008 15.2277 13.2952Z" fill="#263238"/>
<path d="M23.8632 18.3009C23.826 18.318 23.7851 18.3256 23.7442 18.3232C23.685 18.3195 23.6272 18.304 23.5741 18.2775C23.5211 18.251 23.4739 18.214 23.4355 18.1688C23.3716 18.0993 23.3246 18.016 23.2982 17.9254C23.2717 17.8348 23.2665 17.7393 23.283 17.6463C23.341 17.4062 23.4662 17.1876 23.6438 17.016C23.8561 16.8224 24.0435 16.6032 24.2016 16.3633C24.2773 16.2271 24.314 16.0727 24.3076 15.917C24.2967 15.7511 24.2577 15.5883 24.1923 15.4354C24.0252 15.1047 23.8763 14.7651 23.746 14.4183C23.6883 14.2216 23.6883 14.0125 23.746 13.8158C23.8196 13.6258 23.9124 13.4439 24.0231 13.2728C24.129 13.113 24.1715 12.9193 24.1421 12.7299C24.0919 12.5496 23.9928 12.3868 23.8558 12.2594C23.7275 12.1218 23.5861 11.9935 23.4671 11.8466C23.3473 11.7025 23.2609 11.5335 23.2142 11.352C23.1417 11.0181 23.1468 10.672 23.2291 10.3404C23.2942 10.0317 23.3834 9.75282 23.4392 9.49435C23.5564 9.08752 23.5355 8.65333 23.3797 8.25965C23.3149 8.1217 23.2268 7.99591 23.1194 7.88776C23.1194 7.88776 23.1194 7.88776 23.1454 7.90449C23.1695 7.92156 23.1919 7.94086 23.2124 7.96214C23.2972 8.04802 23.3653 8.1489 23.4132 8.25965C23.4931 8.426 23.5416 8.60565 23.5564 8.78961C23.5731 9.03215 23.5543 9.27584 23.5006 9.51295C23.4467 9.77513 23.363 10.0559 23.3016 10.3609C23.2281 10.6809 23.2281 11.0134 23.3016 11.3334C23.3433 11.5021 23.4227 11.6592 23.5341 11.7927C23.6475 11.9321 23.787 12.0567 23.9208 12.198C24.0698 12.3356 24.1784 12.5111 24.2351 12.7057C24.2676 12.9172 24.222 13.1333 24.1068 13.3137C23.9976 13.4788 23.9054 13.6545 23.8316 13.8381C23.7781 14.0202 23.7781 14.2139 23.8316 14.396C23.9589 14.7393 24.1041 15.0757 24.2667 15.4038C24.3354 15.5667 24.3751 15.7404 24.3839 15.917C24.3896 16.0872 24.3484 16.2558 24.2648 16.4042C24.1007 16.6478 23.9064 16.8696 23.6865 17.0643C23.5142 17.2246 23.3905 17.4302 23.3295 17.6575C23.3112 17.7431 23.3133 17.8318 23.3355 17.9164C23.3578 18.001 23.3997 18.0792 23.4578 18.1447C23.527 18.2329 23.6276 18.2909 23.7386 18.3064C23.8223 18.3009 23.8632 18.2897 23.8632 18.3009Z" fill="#263238"/>
<path d="M31.1598 20.8074C31.0388 20.6505 30.9037 20.5048 30.7563 20.3723C30.5901 20.2652 30.4153 20.1719 30.2338 20.0934C30.3394 20.087 30.4452 20.1016 30.5451 20.1364C30.645 20.1712 30.737 20.2255 30.8158 20.2961C30.9048 20.3535 30.9812 20.4285 31.0404 20.5164C31.0995 20.6043 31.1402 20.7033 31.1598 20.8074Z" fill="#D1734A"/>
<path d="M28.3873 30.9975C28.2537 30.7326 28.1627 30.4483 28.1177 30.1551C28.0427 29.8671 28.0157 29.5687 28.0377 29.2719C28.1119 29.556 28.1703 29.844 28.2125 30.1347C28.2879 30.4185 28.3463 30.7066 28.3873 30.9975Z" fill="#D1734A"/>
<path d="M16.5294 28.913C16.8555 28.8043 17.1427 28.6025 17.3555 28.3326C17.5682 28.0626 17.6974 27.7363 17.7269 27.3938C17.8273 26.425 17.1691 25.5641 16.2784 25.4692C15.3877 25.3744 14.5677 26.0866 14.4672 27.0554C14.4259 27.3997 14.4872 27.7485 14.6433 28.0581C14.7994 28.3677 15.0435 28.6244 15.3449 28.7958C13.9503 28.8684 13.2753 29.7256 12.9462 30.4917C13.4618 31.2177 14.2216 31.7338 15.0865 31.9458L16.0906 32.0499C16.9928 32.0189 17.8525 31.6591 18.5079 31.0384C18.3424 30.2221 17.8571 29.2533 16.5294 28.913Z" fill="white"/>
<g opacity="0.3">
<path d="M9.11376 28.2622L9.93938 27.4105C9.93938 27.4105 9.58236 33.5654 9.33876 34.3055C9.09517 35.0456 7.81956 37.5094 7.81956 37.5094L8.92038 34.1419L9.11376 28.2622Z" fill="black"/>
</g>
<path d="M10.9416 26.3673C10.9602 26.3859 10.235 27.1725 9.32014 28.1246C8.40528 29.0766 7.64661 29.8353 7.62615 29.8167C7.6057 29.7981 8.33462 29.0115 9.24948 28.0576C10.1644 27.1037 10.923 26.3487 10.9416 26.3673Z" fill="#263238"/>
<path d="M22.4835 25.8857C22.4869 25.9479 22.4838 26.0102 22.4742 26.0717C22.463 26.1944 22.4426 26.3729 22.4128 26.5942C22.3533 27.033 22.2529 27.6392 22.1153 28.3012C21.9777 28.9632 21.8271 29.5601 21.7062 29.9878C21.6449 30.2016 21.5928 30.3727 21.5537 30.4917C21.5392 30.5567 21.5154 30.6193 21.4831 30.6776C21.4879 30.6147 21.4991 30.5524 21.5166 30.4917C21.5519 30.3504 21.5909 30.1812 21.6393 29.9822C21.7434 29.5508 21.8829 28.9558 22.0205 28.2938C22.1581 27.6318 22.2678 27.0312 22.3459 26.5942C22.3812 26.3934 22.411 26.2223 22.437 26.0773C22.4434 26.0116 22.459 25.9471 22.4835 25.8857Z" fill="#263238"/>
<path d="M18.7403 14.1543C18.7823 14.1186 18.8312 14.0921 18.884 14.0764C18.9368 14.0607 18.9923 14.0562 19.0469 14.0631C19.1016 14.0701 19.1541 14.0883 19.2013 14.1168C19.2485 14.1452 19.2892 14.1831 19.3209 14.2282C19.3526 14.2732 19.3745 14.3244 19.3853 14.3784C19.3961 14.4324 19.3955 14.4881 19.3836 14.5419C19.3716 14.5956 19.3486 14.6463 19.316 14.6907C19.2833 14.7351 19.2418 14.7721 19.194 14.7996C19.1453 14.8256 19.0918 14.8413 19.0367 14.8456C18.9817 14.85 18.9263 14.8428 18.8741 14.8247C18.822 14.8066 18.7741 14.7778 18.7336 14.7403C18.6931 14.7027 18.6608 14.6572 18.6388 14.6066C18.6168 14.5559 18.6055 14.5013 18.6056 14.4461C18.6057 14.3908 18.6173 14.3362 18.6396 14.2857C18.6619 14.2352 18.6944 14.1898 18.7351 14.1525C18.7758 14.1151 18.8238 14.0866 18.876 14.0688" fill="#FF725E"/>
<path d="M18.7794 13.7396C18.8277 13.7396 18.7794 14.0669 19.0285 14.3328C19.2777 14.5987 19.6236 14.6136 19.6198 14.6582C19.6161 14.7028 19.5343 14.7103 19.3874 14.6935C19.1977 14.6707 19.0223 14.5811 18.8928 14.4406C18.769 14.3061 18.7023 14.1288 18.7068 13.946C18.7106 13.8084 18.757 13.734 18.7794 13.7396Z" fill="#263238"/>
<path d="M14.6532 8.9235C14.866 8.66028 15.003 8.34396 15.0493 8.00863C15.0505 7.76875 14.9644 7.53661 14.807 7.35559C14.6496 7.17456 14.4317 7.05704 14.1939 7.02497C13.9538 7.00809 13.7152 7.07479 13.5186 7.21374C13.3221 7.35269 13.1796 7.55535 13.1154 7.78735C13.0649 8.02285 13.0919 8.26837 13.1924 8.48723C13.293 8.70609 13.4617 8.88653 13.6733 9.0016C13.8893 9.10781 14.1327 9.14531 14.3707 9.10908C14.6088 9.07284 14.83 8.96461 15.0047 8.79891" fill="#263238"/>
<path d="M15.079 7.95844C15.1043 8.20114 15.038 8.44455 14.893 8.64087C14.7737 8.85411 14.5786 9.01473 14.3464 9.09086C14.5181 8.93915 14.6738 8.7703 14.8112 8.58694C14.9218 8.38716 15.0115 8.17655 15.079 7.95844Z" fill="#455A64"/>
<path d="M14.5063 9.00347C14.5137 8.65482 14.4724 8.30683 14.3836 7.9696C14.2652 7.6382 14.1005 7.32519 13.8945 7.03986C13.8945 7.03986 13.9986 7.10494 14.1214 7.25742C14.2808 7.4576 14.4013 7.68593 14.4765 7.93055C14.5534 8.1744 14.5849 8.43028 14.5695 8.6855C14.5721 8.79485 14.5505 8.90342 14.5063 9.00347Z" fill="#455A64"/>
</g>
<defs>
<clipPath id="clip0_18_390">
<rect width="37" height="37" rx="18.5" fill="white"/>
</clipPath>
</defs>
</svg>
