<svg width="36" height="36" viewBox="0 0 36 36" fill="none" xmlns="http://www.w3.org/2000/svg">
<g clip-path="url(#clip0_20_351)">
<rect width="36" height="36" rx="18" fill="white"/>
<path d="M9.27015 29.057L17.3533 29.6561C17.4627 28.7051 17.6196 25.0867 17.6196 25.0867C17.6196 25.0867 20.9908 24.7776 21.238 21.4397C21.4853 18.1019 21.3807 10.3943 21.3807 10.3943C19.5327 9.46026 17.4686 9.03696 15.4021 9.16821C13.3357 9.29945 11.3418 9.98047 9.62676 11.1408L9.10849 11.4927L9.27015 29.057Z" fill="#E5BAAB"/>
<path d="M20.23 16.0859C20.1659 16.0184 20.1231 15.9337 20.1067 15.8422C20.0903 15.7506 20.1011 15.6563 20.1378 15.5708C20.1745 15.4853 20.2354 15.4125 20.3131 15.3613C20.3908 15.3102 20.4817 15.2829 20.5747 15.2829C20.6677 15.2829 20.7587 15.3102 20.8363 15.3613C20.914 15.4125 20.975 15.4853 21.0116 15.5708C21.0483 15.6563 21.0592 15.7506 21.0428 15.8422C21.0264 15.9337 20.9835 16.0184 20.9194 16.0859C20.875 16.1326 20.8216 16.1699 20.7623 16.1953C20.703 16.2207 20.6392 16.2339 20.5747 16.2339C20.5102 16.2339 20.4464 16.2207 20.3872 16.1953C20.3279 16.1699 20.2744 16.1326 20.23 16.0859Z" fill="#263238"/>
<path d="M21.0859 15.3726C21.0288 15.4297 20.7197 15.1587 20.2585 15.1254C19.7973 15.0921 19.4502 15.3108 19.4027 15.249C19.3551 15.1872 19.4359 15.1206 19.5929 15.0208C19.7952 14.8879 20.0365 14.8276 20.2775 14.8496C20.5204 14.8641 20.7514 14.9595 20.9337 15.1206C21.0716 15.2395 21.1144 15.3393 21.0859 15.3726Z" fill="#263238"/>
<path d="M15.7605 15.4487C15.8358 15.5037 15.8932 15.5796 15.9257 15.667C15.9582 15.7544 15.9643 15.8494 15.9432 15.9403C15.9221 16.0311 15.8747 16.1137 15.807 16.1778C15.7393 16.242 15.6543 16.2848 15.5625 16.3009C15.4706 16.3171 15.3761 16.3059 15.2906 16.2688C15.205 16.2316 15.1323 16.1701 15.0815 16.092C15.0306 16.0138 15.0039 15.9224 15.0046 15.8292C15.0052 15.736 15.0333 15.645 15.0853 15.5676C15.121 15.5144 15.167 15.469 15.2207 15.4341C15.2744 15.3992 15.3345 15.3755 15.3976 15.3644C15.4606 15.3533 15.5253 15.355 15.5876 15.3695C15.65 15.384 15.7088 15.4109 15.7605 15.4487Z" fill="#263238"/>
<path d="M16.0648 15.4725C16.0077 15.5248 15.6987 15.2538 15.2374 15.2205C14.7762 15.1872 14.4291 15.4107 14.3816 15.3489C14.334 15.2871 14.4149 15.2157 14.567 15.1159C14.7732 14.9878 15.0144 14.928 15.2565 14.9447C15.4986 14.9623 15.7286 15.0574 15.9126 15.2157C16.0505 15.3394 16.0933 15.4487 16.0648 15.4725Z" fill="#263238"/>
<path d="M17.6767 19.381C17.9199 19.3058 18.1733 19.2689 18.4279 19.2716C18.5515 19.2716 18.6514 19.2479 18.6657 19.1813C18.6777 19.0585 18.6546 18.9348 18.5991 18.8247L18.2948 17.8737C18.002 17.0606 17.7871 16.2216 17.6529 15.3679C18.0213 16.1486 18.3158 16.962 18.5325 17.7976L18.8178 18.7486C18.8865 18.906 18.8999 19.0819 18.8559 19.2479C18.8359 19.2924 18.8056 19.3315 18.7676 19.3621C18.7296 19.3927 18.6849 19.4138 18.6371 19.4238C18.5693 19.4326 18.5006 19.4326 18.4327 19.4238C18.18 19.45 17.9248 19.4356 17.6767 19.381Z" fill="#263238"/>
<path d="M16.1504 19.7946C15.6749 19.4808 17.4246 20.5792 18.3661 20.5935C18.1951 20.8252 17.9504 20.9918 17.6722 21.0661C17.394 21.1404 17.0988 21.118 16.835 21.0024C15.8556 20.5697 16.1504 19.7946 16.1504 19.7946Z" fill="white"/>
<path d="M17.6006 25.0392C16.0567 24.974 14.5671 24.451 13.3213 23.5367C13.3213 23.5367 14.2009 26.0044 17.553 25.9141L17.6006 25.0392Z" fill="#D78776"/>
<path d="M9.74561 14.455C9.66953 14.4265 7.26359 14.1127 7.49182 16.956C7.72006 19.7994 10.5159 18.625 10.5111 18.5442C10.5064 18.4633 9.74561 14.455 9.74561 14.455Z" fill="#E5BAAB"/>
<path d="M9.5364 17.617C9.5364 17.617 9.49361 17.6551 9.41278 17.7026C9.29829 17.7613 9.16593 17.7749 9.0419 17.7406C8.84938 17.6379 8.68735 17.4862 8.57215 17.3009C8.45695 17.1156 8.39265 16.9032 8.38574 16.6851C8.35953 16.4424 8.38879 16.1969 8.47132 15.9671C8.49035 15.8762 8.53095 15.7911 8.5897 15.7191C8.64845 15.6471 8.72363 15.5903 8.80892 15.5534C8.86508 15.5353 8.9257 15.5368 8.98095 15.5575C9.0362 15.5782 9.08281 15.617 9.11322 15.6675C9.15602 15.7436 9.14651 15.8007 9.16077 15.8054C9.17504 15.8102 9.21783 15.7531 9.16077 15.639C9.14094 15.5692 9.09718 15.5086 9.03715 15.4678C8.9528 15.4177 8.85278 15.4007 8.75661 15.4203C8.64336 15.4524 8.54021 15.5129 8.45697 15.5961C8.37374 15.6794 8.31321 15.7825 8.28113 15.8958C8.17859 16.1504 8.14101 16.4266 8.17177 16.6993C8.17705 16.9534 8.25758 17.2001 8.40316 17.4083C8.54875 17.6165 8.75284 17.7769 8.9896 17.869C9.06754 17.8854 9.14815 17.884 9.2255 17.8651C9.30285 17.8462 9.37497 17.8101 9.43655 17.7597C9.5364 17.6883 9.55067 17.6218 9.5364 17.617Z" fill="#D78776"/>
<path d="M21.5946 9.19139C21.7871 9.18624 21.9758 9.13689 22.1461 9.04717C22.3164 8.95745 22.4638 8.82976 22.5769 8.67396C22.69 8.51817 22.7658 8.33845 22.7983 8.1487C22.8308 7.95895 22.8193 7.76427 22.7646 7.5797C22.7098 7.39513 22.6134 7.22562 22.4827 7.08428C22.352 6.94294 22.1905 6.83355 22.0108 6.76459C21.831 6.69562 21.6378 6.66893 21.4461 6.68656C21.2544 6.70419 21.0693 6.76568 20.9052 6.86627C21.3028 6.5362 21.6268 6.12639 21.8562 5.6633C21.9671 5.42974 22.0038 5.1678 21.9613 4.91275C21.9188 4.6577 21.7991 4.42181 21.6184 4.23686C21.4092 4.0984 21.1671 4.01759 20.9167 4.00256C20.6662 3.98753 20.4163 4.03883 20.192 4.15127C19.4835 4.45558 18.9224 5.05468 18.1949 5.30669C17.4675 5.5587 16.6544 5.43508 15.8746 5.46836C14.9996 5.48397 14.1521 5.777 13.4544 6.30521C12.8598 6.77236 12.475 7.45643 12.3846 8.20713C12.2911 8.07881 12.1878 7.95799 12.0755 7.84577C11.7057 7.40442 11.2068 7.09012 10.649 6.94711C10.6158 7.00892 11.2672 7.37029 11.89 8.01694C12.0596 8.1792 12.2185 8.35232 12.3655 8.53522C11.2814 8.40208 10.088 8.39257 9.23211 9.06776C8.88538 9.37682 8.61135 9.7588 8.42967 10.1863C8.24799 10.6138 8.16317 11.0761 8.18129 11.5403C8.18129 12.4627 8.56168 13.3423 8.8327 14.2267C8.89825 14.4773 9.01123 14.7129 9.16554 14.9209L9.57445 17.2984L11.0627 17.2698L10.9676 12.282C10.9676 12.282 10.8155 10.1804 12.6223 10.3801C14.4291 10.5798 16.9016 12.6006 20.4107 12.0871C20.9865 12.055 21.5474 11.8924 22.0511 11.6116C22.2949 11.4572 22.4931 11.2404 22.6251 10.9838C22.7572 10.7272 22.8184 10.44 22.8024 10.1519C22.7678 9.86513 22.6216 9.60357 22.3956 9.42381C22.1695 9.24405 21.8818 9.16055 21.5946 9.19139Z" fill="#263238"/>
<path d="M51.4787 31.8434C51.4787 31.8434 39.0068 44.1156 37.257 44.2059C35.26 44.301 29.1168 35.5902 29.1168 35.5902C25.1845 29.523 19.997 28.5435 18.1046 28.3914V27.6401L8.80892 26.8793C8.80892 26.8793 8.80892 27.6781 8.80892 28.3771H4.70551C4.70551 28.3771 -2.66446 28.0395 -3.76758 37.939L1.52929 42.128L3.70225 50.2112C4.45826 53.0261 1.75752 57.5099 0.468966 64.7705C0.270241 65.9809 0.47226 67.223 1.0443 68.3081L27.8853 71.394L26.4588 50.8722L26.0261 46.1173C28.2371 49.1366 32.2074 53.4065 37.0716 53.3114C45.3687 53.1545 56.8944 35.7185 56.8944 35.7185L51.4787 31.8434Z" fill="#E0E0E0"/>
<path d="M14.9759 27.507C15.022 27.9289 15.022 28.3546 14.9759 28.7765C14.9066 29.8328 14.7636 30.883 14.548 31.9194L14.5147 32.0763L14.3721 32.0003C14.0487 31.8291 13.7111 31.6484 13.3688 31.4487C12.0374 30.6642 10.901 29.8558 10.0404 29.2948C9.57582 29.012 9.1281 28.7024 8.69955 28.3676C8.84186 28.4092 8.97783 28.4699 9.10371 28.5483C9.35096 28.6862 9.70757 28.8859 10.1355 29.1474C11.0009 29.6704 12.1516 30.4597 13.4639 31.2347C13.7967 31.4297 14.1296 31.6151 14.4529 31.7863L14.277 31.8671C14.5527 30.6404 14.6859 29.542 14.7857 28.7622C14.8236 28.3403 14.8872 27.9211 14.9759 27.507Z" fill="#FAFAFA"/>
<path d="M18.1331 28.4437C18.0734 28.8521 17.9844 29.2557 17.8668 29.6514C17.7765 30.027 17.6814 30.474 17.5197 30.959C17.4356 31.2154 17.3355 31.4663 17.2202 31.7102C17.1869 31.7977 17.1271 31.8725 17.049 31.9242C16.9949 31.9574 16.931 31.9713 16.868 31.9635C16.8049 31.9557 16.7464 31.9268 16.7019 31.8814C16.6128 31.75 16.5409 31.6078 16.4879 31.4582C16.0125 30.3789 15.6368 29.3994 15.3611 28.6814C15.1876 28.3053 15.0553 27.9115 14.9664 27.507C15.1885 27.8567 15.3749 28.2278 15.5227 28.6148C15.8413 29.3138 16.2645 30.2838 16.7162 31.3631C16.76 31.4832 16.8141 31.5994 16.8778 31.7102C16.9016 31.7102 16.8778 31.7102 16.9206 31.7102C16.9564 31.6812 16.9843 31.6436 17.0015 31.6009C17.1152 31.367 17.2168 31.1273 17.3058 30.8829C17.4722 30.4074 17.5863 29.97 17.6957 29.6038C17.7902 29.1997 17.9373 28.8096 18.1331 28.4437Z" fill="#FAFAFA"/>
<path d="M16.4024 61.6513C16.3796 61.5401 16.3669 61.4271 16.3643 61.3137C16.3643 61.0665 16.3453 60.7495 16.3073 60.3627C16.2692 59.4879 16.2122 58.2754 16.1456 56.7871C16.0315 53.744 15.8698 49.5836 15.6987 44.9904C15.5275 40.3973 15.4181 36.2368 15.323 33.1937C15.2897 31.7007 15.2612 30.4882 15.2374 29.6133C15.2374 29.2139 15.2374 28.8906 15.2374 28.6624C15.2251 28.5486 15.2251 28.4338 15.2374 28.32C15.2593 28.4312 15.2705 28.5443 15.2707 28.6576C15.2707 28.9048 15.3088 29.2282 15.3325 29.6086C15.3706 30.4787 15.4276 31.6912 15.4942 33.1794C15.6083 36.2225 15.7652 40.383 15.9411 44.9761C16.1171 49.5693 16.2169 53.7298 16.3168 56.7776C16.3501 58.2659 16.3786 59.4783 16.4024 60.3532C16.4024 60.7574 16.4024 61.0807 16.4024 61.328C16.4136 61.4355 16.4136 61.5438 16.4024 61.6513Z" fill="#F5F5F5"/>
<path d="M14.7097 30.512L15.4894 32.6612L16.1599 30.3551L15.1186 28.0443L14.7097 30.512Z" fill="#FF725E"/>
<path d="M15.6321 32.0193L15.1186 56.2118L18.7703 63.8481L20.211 55.2561L15.6321 32.0193Z" fill="#FF725E"/>
<path d="M16.4879 68.7075C16.483 68.668 16.483 68.6281 16.4879 68.5886C16.4879 68.4935 16.4879 68.3794 16.5117 68.2415C16.5355 67.9134 16.5688 67.4712 16.6163 66.9054C16.7162 65.7262 16.8636 64.0525 17.0395 61.9937L17.0918 62.0792L10.435 58.8602L8.53312 57.9093C7.89122 57.5669 7.24457 57.1913 6.60267 56.7776C5.95139 56.3573 5.32581 55.8984 4.72926 55.4035C4.42971 55.1515 4.13016 54.8852 3.84487 54.6047C3.684 54.4634 3.55444 54.2901 3.46448 54.0959C3.41407 54.0017 3.37725 53.9009 3.35512 53.7963C3.32391 53.6971 3.30163 53.5953 3.28855 53.492C3.07459 51.8469 3.51203 50.2968 3.76404 48.818C4.01604 47.3393 4.26805 45.8986 4.50579 44.5387C4.98127 41.8094 5.41396 39.3559 5.77533 37.2828C5.97044 36.3645 6.08184 35.4303 6.10816 34.4918C6.11734 33.7856 5.97125 33.086 5.68023 32.4424C5.49356 32.0364 5.22856 31.6712 4.90044 31.3679C4.67221 31.1634 4.53432 31.0826 4.53907 31.0683C4.68053 31.1395 4.81301 31.2273 4.93372 31.3298C5.28283 31.6243 5.5663 31.9888 5.76582 32.3996C6.0779 33.053 6.24033 33.7677 6.2413 34.4918C6.23069 35.439 6.1304 36.3831 5.94175 37.3114C5.59464 39.3892 5.18098 41.8475 4.72451 44.5815C4.49153 45.9461 4.24903 47.3821 3.99703 48.8608C3.93521 49.2317 3.86864 49.6073 3.80208 49.9877C3.73551 50.3681 3.66419 50.739 3.61188 51.1194C3.48686 51.8881 3.46607 52.6702 3.55007 53.4445C3.56512 53.5391 3.58576 53.6328 3.61188 53.725C3.63059 53.8164 3.66263 53.9045 3.70698 53.9865C3.7853 54.1545 3.89881 54.3037 4.03982 54.424C4.32035 54.6998 4.6104 54.9613 4.90519 55.2085C5.49379 55.6987 6.11146 56.1528 6.75482 56.5684C7.38721 56.9821 8.02436 57.353 8.65675 57.6953L10.5587 58.6463L17.1631 61.9366L17.2154 61.9651V62.0222C17.0015 64.081 16.8303 65.75 16.7114 66.9292C16.6448 67.4902 16.5973 67.9372 16.5593 68.2605C16.5402 68.4 16.526 68.5141 16.5165 68.6029C16.5104 68.6386 16.5008 68.6736 16.4879 68.7075Z" fill="#FAFAFA"/>
</g>
<defs>
<clipPath id="clip0_20_351">
<rect width="36" height="36" rx="18" fill="white"/>
</clipPath>
</defs>
</svg>
